<?xml version="1.0" encoding="utf-8"?>
<!-- Generator: Adobe Illustrator 15.0.0, SVG Export Plug-In . SVG Version: 6.00 Build 0)  -->
<!DOCTYPE svg PUBLIC "-//W3C//DTD SVG 1.1//EN" "http://www.w3.org/Graphics/SVG/1.1/DTD/svg11.dtd">
<svg version="1.1" id="Layer_1" xmlns="http://www.w3.org/2000/svg" xmlns:xlink="http://www.w3.org/1999/xlink" x="0px" y="0px"
	 width="141.73px" height="141.73px" viewBox="0 0 141.73 141.73" enable-background="new 0 0 141.73 141.73" xml:space="preserve">
<rect y="70.98" fill="#FFFFFF" width="141.73" height="70.75"/>
<rect fill="#1A2929" width="141.73" height="70.75"/>
<g>
	<path fill="#FFFFFF" d="M34.618,62.952c0,3.307,0.114,6.043,0.229,8.323h-6.1l-0.343-4.161h-0.171
		c-1.197,1.938-3.934,4.788-8.95,4.788S9.649,68.88,9.649,59.817V43.512h7.012V58.62c0,4.617,1.482,7.582,5.188,7.582
		c2.851,0,4.675-1.938,5.359-3.763c0.284-0.57,0.398-1.368,0.398-2.166V43.512h7.012V62.952z"/>
	<path fill="#FFFFFF" d="M42.196,30.8h7.012v40.475h-7.012V30.8z"/>
	<path fill="#FFFFFF" d="M56.843,51.779c0-3.192-0.114-5.872-0.229-8.267h5.986l0.342,4.104h0.171
		c1.312-2.166,3.819-4.731,8.551-4.731c3.648,0,6.499,2.053,7.696,5.131h0.114c0.969-1.539,2.109-2.68,3.363-3.478
		c1.596-1.083,3.363-1.653,5.7-1.653c4.561,0,9.235,3.136,9.235,12.028v16.361h-6.841V55.94c0-4.617-1.597-7.354-4.96-7.354
		c-2.394,0-4.161,1.71-4.902,3.705c-0.228,0.627-0.342,1.539-0.342,2.337v16.646h-6.841V55.199c0-3.876-1.539-6.612-4.789-6.612
		c-2.622,0-4.39,2.052-5.073,3.934c-0.229,0.741-0.342,1.539-0.342,2.337v16.418h-6.841V51.779z"/>
</g>
<g>
	<path fill="#1A2929" d="M90.647,112.786c-1.428,1.326-3.009,2.754-5.049,2.754c-2.091,0-3.06-1.938-3.162-3.773
		c-2.396,2.192-4.691,3.773-7.853,3.773c-3.264,0-5.508-2.243-5.508-4.946c0.204-4.079,2.295-4.845,13.31-8.618V98.61
		c0-2.856-1.683-4.386-4.946-4.386c-2.244,0-3.773,1.274-3.876,3.569c0,1.428-1.632,2.142-2.856,2.142
		c-0.765,0-0.918-0.662-0.918-1.02c0-2.703,2.295-3.978,5.865-5.813c1.785-0.918,2.652-1.632,4.59-1.632
		c2.295,0,6.222,1.479,6.222,4.283v14.126c0,2.091,0.714,2.906,1.836,2.906c0.662,0,1.428-0.306,1.887-0.866L90.647,112.786z
		 M82.386,103.454c-2.601,1.021-9.229,2.193-9.229,6.018c0,1.989,1.632,3.672,3.62,3.672c2.396,0,3.927-1.479,5.609-2.958V103.454z"
		/>
	<path fill="#1A2929" d="M101.562,123.853c0,1.224,1.275,1.224,2.396,1.224h2.295v1.326c-2.192-0.051-4.334-0.103-6.527-0.103
		c-2.091,0-4.232,0.052-6.323,0.103v-1.326h1.938c1.888,0,2.143-0.867,2.143-1.632V99.273c0-3.876-1.53-3.672-3.009-4.386v-0.766
		c1.988-0.918,3.978-1.887,6.018-2.753c0.152-0.052,0.356-0.204,0.51-0.204c0.204,0,0.561,0,0.561,0.459v3.62
		c1.989-1.784,4.641-3.773,7.7-3.773c5.712,0,9.383,5.508,9.383,10.862c0,6.986-5.507,13.207-12.544,13.207
		c-1.377,0-3.315-0.407-4.539-0.969V123.853z M106.102,94.836c-1.684,0-3.57,0.97-4.539,1.684v13.87
		c0.663,1.224,2.295,3.519,5.457,3.519c4.946,0,7.547-5.1,7.547-9.484C114.566,99.528,111.608,94.836,106.102,94.836z"/>
	<path fill="#1A2929" d="M122.423,113.449h0.969c1.428,0,2.448,0,2.448-1.683V97.947c0-2.244-0.766-2.55-2.652-3.57v-0.815
		c2.397-0.714,5.253-1.683,5.457-1.836c0.356-0.204,0.663-0.255,0.918-0.255s0.356,0.306,0.356,0.714v19.582
		c0,1.683,1.122,1.683,2.55,1.683h0.867v1.326c-1.734,0-3.519-0.102-5.354-0.102s-3.672,0.051-5.559,0.102V113.449z M127.879,83.617
		c-1.325,0-2.498-1.224-2.498-2.55c0-1.274,1.224-2.447,2.498-2.447c1.326,0,2.499,1.071,2.499,2.447
		C130.378,82.444,129.256,83.617,127.879,83.617z"/>
</g>
</svg>
